<?xml version="1.0" encoding="utf-8"?>
<!-- Generator: Adobe Illustrator 23.0.0, SVG Export Plug-In . SVG Version: 6.00 Build 0)  -->
<svg version="1.1" xmlns="http://www.w3.org/2000/svg" xmlns:xlink="http://www.w3.org/1999/xlink" x="0px" y="0px"
	 viewBox="0 0 1920 1920" style="enable-background:new 0 0 1920 1920;" xml:space="preserve">
<style type="text/css">
	.st0{fill:#FCC617;}
	.st1{fill:#FDA614;}
	.st2{fill:#F46060;}
	.st3{fill:#FF8345;}
</style>
<g id="Camada_1">
</g>
<g id="Camada_2">
	<g>
		<polygon class="st0" points="862,797 1017,85 1302,1034 		"/>
		<path class="st1" d="M1355.55,1266h34.23c-1.46-12.82-3.64-25.46-6.49-37.88l2.7,16.88L1355.55,1266z"/>
		<path class="st2" d="M631.63,1034.3l341.83-645.84l93.01,154.51l-70.57-330.56l-391.37,848.6
			C613.11,1051.75,622.15,1042.83,631.63,1034.3z"/>
		<path class="st2" d="M604.54,1061.01l-87.77,190.3l114.86-217.01C622.15,1042.83,613.11,1051.75,604.54,1061.01z"/>
		<polygon class="st3" points="1121.66,634.63 1066.48,542.97 1092.46,664.67 		"/>
		<polygon class="st3" points="516.77,1251.31 508,1266 511.81,1262.08 		"/>
		<path class="st3" d="M631.63,1034.3c54.86-49.33,124.59-85.91,202.85-104.2l257.98-265.42l-25.98-121.71l-93.01-154.51
			L631.63,1034.3z"/>
		<path class="st3" d="M834.48,930.09c-78.26,18.29-147.99,54.87-202.85,104.2l-114.86,217.01l-4.97,10.77L834.48,930.09z"/>
		<path class="st1" d="M1111.22,752.58l44.67,209.25c115.59,53.57,200.86,150.62,227.4,266.29L1204,487l-82.34,147.63l43.38,72.07
			L1111.22,752.58z"/>
		<path class="st1" d="M508.24,1265.75L508,1266h0.21C508.22,1265.92,508.23,1265.83,508.24,1265.75z"/>
		<path class="st1" d="M509,1266l1.2-2.26l-1.95,2.01c-0.01,0.08-0.02,0.17-0.03,0.25H509z"/>
		<path class="st1" d="M1155.89,961.83l23.29,109.09L510,1266h301.99c13.91-69.02,74.89-121,148.01-121s134.1,51.98,148.01,121
			h247.54l30.45-21l-2.7-16.88C1356.75,1112.45,1271.48,1015.4,1155.89,961.83z"/>
		<polygon class="st1" points="509,1266 510,1266 510.65,1264.59 		"/>
		<path class="st1" d="M949,917c74.73,0,145.14,16.21,206.89,44.83l-44.67-209.25L917.2,917.99C927.7,917.34,938.31,917,949,917z"/>
		<path class="st1" d="M1155.89,961.83C1094.14,933.21,1023.73,917,949,917c-10.69,0-21.3,0.34-31.8,0.99l-406.55,346.6L510,1266
			l669.18-195.08L1155.89,961.83z"/>
		<polygon class="st1" points="1111.22,752.58 1165.04,706.7 1121.66,634.63 1092.46,664.67 		"/>
		<polygon class="st1" points="510.65,1264.59 511.81,1262.08 510.2,1263.74 509,1266 		"/>
		<path class="st1" d="M1111.22,752.58l-18.77-87.91L834.48,930.09c26.67-6.23,54.32-10.34,82.72-12.1L1111.22,752.58z"/>
		<path class="st1" d="M834.48,930.09l-322.68,331.99l-1.16,2.51l406.55-346.6C888.81,919.76,861.15,923.86,834.48,930.09z"/>
		<path class="st1" d="M1389.79,1266h-34.23l-242.24,167.08c-115.83,62.9-255.7,62.61-371.26-0.78L508.2,1266.14
			c-1.45,12.78-2.2,25.74-2.2,38.86c0,214.29,198.34,388,443,388s443-173.71,443-388C1392,1291.84,1391.25,1278.83,1389.79,1266z"/>
		<path class="st1" d="M508,1266l0.2,0.14c0.01-0.05,0.01-0.09,0.02-0.14H508z"/>
		<path class="st1" d="M1113.31,1433.08L1355.55,1266h-247.54c2.18,10.81,3.21,22.03,2.94,33.54
			c-1.9,82.65-70.76,148.77-153.43,147.44C875.28,1445.66,809,1378.57,809,1296c0-10.27,1.03-20.3,2.99-30H510h-1h-0.79
			c-0.01,0.05-0.01,0.09-0.02,0.14l233.85,166.16C857.61,1495.69,997.48,1495.98,1113.31,1433.08z"/>
	</g>
</g>
</svg>
